<svg xmlns="http://www.w3.org/2000/svg" width="691" height="393" viewBox="0 0 691 393"><g transform="translate(-334 -494)"><g transform="translate(366 487)" fill="rgba(0,0,0,0.9)"><path d="M 582.58740234375 399.5 L -31.37100982666016 399.5 L 59.39743804931641 7.5 L 658.39404296875 7.5 L 582.58740234375 399.5 Z" stroke="none"/><path d="M 59.79486083984375 8 L -30.7420654296875 399 L 582.1748657226563 399 L 657.7880859375 8 L 59.79486083984375 8 M 59 7 L 659 7 L 583 400 L -32 400 L 59 7 Z" stroke="none" fill="#2e0e2f"/></g><path d="M126,55.742,0,0" transform="translate(475.5 546.5)" fill="none" stroke="#eee8e8" stroke-width="7"/><path d="M0,68,55,0" transform="translate(601.5 535)" fill="none" stroke="#eee8e8" stroke-width="7"/><path d="M0,0,77,53" transform="translate(656.5 535)" fill="none" stroke="#eee8e8" stroke-width="7"/><line x2="110" y2="19.284" transform="translate(733.5 588.5)" fill="none" stroke="#eee8e8" stroke-width="7"/><line y1="40" x2="65" transform="translate(843.5 568.056)" fill="none" stroke="#eee8e8" stroke-width="7"/><line x2="87" y2="70" transform="translate(843.5 606.5)" fill="none" stroke="#eee8e8" stroke-width="7"/><path d="M39,0,0,36" transform="translate(562.5 602.5)" fill="none" stroke="#eee8e8" stroke-width="7"/><path d="M0,0,27.219,27.625,67,68" transform="translate(562.5 638.5)" fill="none" stroke="#eee8e8" stroke-width="7"/><path d="M0,0,105,32" transform="translate(601.5 602.5)" fill="none" stroke="#eee8e8" stroke-width="7"/><path d="M27,0,0,46" transform="translate(706.5 588.5)" fill="none" stroke="#eee8e8" stroke-width="5"/><path d="M0,0,45,88" transform="translate(733.5 588.5)" fill="none" stroke="#eee8e8" stroke-width="7"/><path d="M0,0,72,42" transform="translate(706.5 634.5)" fill="none" stroke="#eee8e8" stroke-width="7"/><path d="M0,14,54,0" transform="translate(774.5 662.5)" fill="none" stroke="#eee8e8" stroke-width="7"/><line x1="54" y2="73" transform="translate(508.5 638.5)" fill="none" stroke="#eee8e8" stroke-width="7"/><line x1="87" y2="7" transform="translate(475.5 638.5)" fill="none" stroke="#eee8e8" stroke-width="7"/><path d="M0,72,77,0" transform="translate(629.5 634.5)" fill="none" stroke="#eee8e8" stroke-width="7"/><path d="M0,0,45,51" transform="translate(774.5 675.5)" fill="none" stroke="#eee8e8" stroke-width="7"/><circle cx="15" cy="15" r="15" transform="translate(471 535)" fill="#2ff236"/><circle cx="12.5" cy="12.5" r="12.5" transform="translate(644 525)" fill="#bb43b7"/><circle cx="15" cy="15" r="15" transform="translate(719 573)" fill="#2ff236"/><circle cx="13" cy="13" r="13" transform="translate(887 561)" fill="#bb43b7"/><circle cx="15" cy="15" r="15" transform="translate(909 656)" fill="#2ff236"/><circle cx="15" cy="15" r="15" transform="translate(764 660)" fill="#bb43b7"/><circle cx="15" cy="15" r="15" transform="translate(614 690)" fill="#bb43b7"/><circle cx="25" cy="25" r="25" transform="translate(537 617)" fill="#bb43b7"/><circle cx="16" cy="16" r="16" transform="translate(587 588)" fill="#bb43b7"/><circle cx="15" cy="15" r="15" transform="translate(464 633)" fill="#2ff236"/><circle cx="12.5" cy="12.5" r="12.5" transform="translate(501 695)" fill="#2ff236"/><circle cx="15" cy="15" r="15" transform="translate(814 648)" fill="#2ff236"/><circle cx="10" cy="10" r="10" transform="translate(810 717)" fill="#2ff236"/><circle cx="20" cy="20" r="20" transform="translate(687 618)" fill="#2ff236"/><text transform="translate(523 828)" fill="#fff" font-size="140" font-family="SegoeUI-Bold, Segoe UI" font-weight="700"><tspan x="0" y="0">S_W.</tspan></text><path d="M14,0A14,14,0,1,1,0,14,14,14,0,0,1,14,0Z" transform="translate(797 806)" fill="#2ff236"/></g></svg>